<svg width="200" height="86" viewBox="0 0 200 86" fill="none" xmlns="http://www.w3.org/2000/svg">
<path d="M87.5 23.1152L95 32.6152L106.5 28.1152C106.5 28.1152 117.5 32.6152 112 34.6152C106.51 36.6117 91.5523 43.5908 91.5 43.6152L85.5 36.6152L78.5 49.1152L90 58.6152C90 58.6152 95 77.2845 97.5 82.1152C100 86.9456 90 85.1152 90 85.1152L81.5 64.6152L61.5 52.1152C58.7002 50.9151 60.3334 45.9485 61.5 43.6152L71.5 26.1152H63.5C63.5 26.1152 57.5 34.2851 54 36.7852C50.5 39.2852 49.5 32.6152 49.5 32.6152L60.5 17.6152L76.5 16.6152L87.5 23.1152ZM66.5 60.1152L55 70.1152H32C31.958 70.0769 24.5212 63.2852 32 63.2852C39.5 63.2852 50 61.1152 50 61.1152L58.5 52.1152L66.5 60.1152ZM20.5 64.6152C21.1667 65.9486 22.1 68.6152 20.5 68.6152C18.9 68.6152 6.16667 66.9486 0 66.1152L20.5 64.6152ZM39.5 54.6152L5.5 52.1152L39.5 50.6152V54.6152ZM55 43.6152L30.5 42.1152L55 40.6152V43.6152ZM98 13.6152C97.3333 17.2819 95 23.4852 89 20.2852C86.3333 18.9518 80.7 15.1152 81.5 9.11523L98 13.6152ZM103.5 7.11523C105.1 6.7154 104.167 10.2818 103.5 12.1152C102.833 12.9486 101.3 14.6152 100.5 14.6152C99.7 14.6152 100.167 11.9486 100.5 10.6152C100.833 9.61511 101.9 7.51519 103.5 7.11523ZM82.5 5.61523C84.3334 3.11524 88.5002 -0.715023 93.5 0.115234C97.8966 0.845361 100.2 4.11545 99 10.1152L82.5 5.61523Z" fill="url(#paint0_linear_142_617)"/>
<path d="M87.5 23.1152L95 32.6152L106.5 28.1152C106.5 28.1152 117.5 32.6152 112 34.6152C106.51 36.6117 91.5523 43.5908 91.5 43.6152L85.5 36.6152L78.5 49.1152L90 58.6152C90 58.6152 95 77.2845 97.5 82.1152C100 86.9456 90 85.1152 90 85.1152L81.5 64.6152L61.5 52.1152C58.7002 50.9151 60.3334 45.9485 61.5 43.6152L71.5 26.1152H63.5C63.5 26.1152 57.5 34.2851 54 36.7852C50.5 39.2852 49.5 32.6152 49.5 32.6152L60.5 17.6152L76.5 16.6152L87.5 23.1152ZM66.5 60.1152L55 70.1152H32C31.958 70.0769 24.5212 63.2852 32 63.2852C39.5 63.2852 50 61.1152 50 61.1152L58.5 52.1152L66.5 60.1152ZM20.5 64.6152C21.1667 65.9486 22.1 68.6152 20.5 68.6152C18.9 68.6152 6.16667 66.9486 0 66.1152L20.5 64.6152ZM39.5 54.6152L5.5 52.1152L39.5 50.6152V54.6152ZM55 43.6152L30.5 42.1152L55 40.6152V43.6152ZM98 13.6152C97.3333 17.2819 95 23.4852 89 20.2852C86.3333 18.9518 80.7 15.1152 81.5 9.11523L98 13.6152ZM103.5 7.11523C105.1 6.7154 104.167 10.2818 103.5 12.1152C102.833 12.9486 101.3 14.6152 100.5 14.6152C99.7 14.6152 100.167 11.9486 100.5 10.6152C100.833 9.61511 101.9 7.51519 103.5 7.11523ZM82.5 5.61523C84.3334 3.11524 88.5002 -0.715023 93.5 0.115234C97.8966 0.845361 100.2 4.11545 99 10.1152L82.5 5.61523Z" stroke="black"/>
<path d="M200 64.7852L104 12.7852L105 10.2852L200 36.2852V64.7852Z" fill="url(#paint1_linear_142_617)"/>
<path d="M87.5 23.1152L95 32.6152L106.5 28.1152C106.5 28.1152 117.5 32.6152 112 34.6152C106.51 36.6117 91.5523 43.5908 91.5 43.6152L85.5 36.6152L78.5 49.1152L90 58.6152C90 58.6152 95 77.2845 97.5 82.1152C100 86.9456 90 85.1152 90 85.1152L81.5 64.6152L61.5 52.1152C58.7002 50.9151 60.3334 45.9485 61.5 43.6152L71.5 26.1152H63.5C63.5 26.1152 57.5 34.2851 54 36.7852C50.5 39.2852 49.5 32.6152 49.5 32.6152L60.5 17.6152L76.5 16.6152L87.5 23.1152ZM66.5 60.1152L55 70.1152H32C31.958 70.0769 24.5212 63.2852 32 63.2852C39.5 63.2852 50 61.1152 50 61.1152L58.5 52.1152L66.5 60.1152ZM20.5 64.6152C21.1667 65.9486 22.1 68.6152 20.5 68.6152C18.9 68.6152 6.16667 66.9486 0 66.1152L20.5 64.6152ZM39.5 54.6152L5.5 52.1152L39.5 50.6152V54.6152ZM55 43.6152L30.5 42.1152L55 40.6152V43.6152ZM98 13.6152C97.3333 17.2819 95 23.4852 89 20.2852C86.3333 18.9518 80.7 15.1152 81.5 9.11523L98 13.6152ZM103.5 7.11523C105.1 6.7154 104.167 10.2818 103.5 12.1152C102.833 12.9486 101.3 14.6152 100.5 14.6152C99.7 14.6152 100.167 11.9486 100.5 10.6152C100.833 9.61511 101.9 7.51519 103.5 7.11523ZM82.5 5.61523C84.3334 3.11524 88.5002 -0.715023 93.5 0.115234C97.8966 0.845361 100.2 4.11545 99 10.1152L82.5 5.61523Z" fill="url(#paint2_linear_142_617)"/>
<path d="M87.5 23.1152L95 32.6152L106.5 28.1152C106.5 28.1152 117.5 32.6152 112 34.6152C106.51 36.6117 91.5523 43.5908 91.5 43.6152L85.5 36.6152L78.5 49.1152L90 58.6152C90 58.6152 95 77.2845 97.5 82.1152C100 86.9456 90 85.1152 90 85.1152L81.5 64.6152L61.5 52.1152C58.7002 50.9151 60.3334 45.9485 61.5 43.6152L71.5 26.1152H63.5C63.5 26.1152 57.5 34.2851 54 36.7852C50.5 39.2852 49.5 32.6152 49.5 32.6152L60.5 17.6152L76.5 16.6152L87.5 23.1152ZM66.5 60.1152L55 70.1152H32C31.958 70.0769 24.5212 63.2852 32 63.2852C39.5 63.2852 50 61.1152 50 61.1152L58.5 52.1152L66.5 60.1152ZM20.5 64.6152C21.1667 65.9486 22.1 68.6152 20.5 68.6152C18.9 68.6152 6.16667 66.9486 0 66.1152L20.5 64.6152ZM39.5 54.6152L5.5 52.1152L39.5 50.6152V54.6152ZM55 43.6152L30.5 42.1152L55 40.6152V43.6152ZM98 13.6152C97.3333 17.2819 95 23.4852 89 20.2852C86.3333 18.9518 80.7 15.1152 81.5 9.11523L98 13.6152ZM103.5 7.11523C105.1 6.7154 104.167 10.2818 103.5 12.1152C102.833 12.9486 101.3 14.6152 100.5 14.6152C99.7 14.6152 100.167 11.9486 100.5 10.6152C100.833 9.61511 101.9 7.51519 103.5 7.11523ZM82.5 5.61523C84.3334 3.11524 88.5002 -0.715023 93.5 0.115234C97.8966 0.845361 100.2 4.11545 99 10.1152L82.5 5.61523Z" stroke="black"/>
<path d="M200 64.7852L104 12.7852L105 10.2852L200 36.2852V64.7852Z" fill="url(#paint3_linear_142_617)"/>
<defs>
<linearGradient id="paint0_linear_142_617" x1="56" y1="-0.214844" x2="56" y2="85.1155" gradientUnits="userSpaceOnUse">
<stop offset="0.653846" stop-color="#BCB2E4"/>
<stop offset="1" stop-opacity="0"/>
</linearGradient>
<linearGradient id="paint1_linear_142_617" x1="104" y1="37.5352" x2="200" y2="37.5352" gradientUnits="userSpaceOnUse">
<stop stop-color="#EECD7F"/>
<stop offset="1" stop-opacity="0"/>
</linearGradient>
<linearGradient id="paint2_linear_142_617" x1="56" y1="-0.214844" x2="56" y2="85.1155" gradientUnits="userSpaceOnUse">
<stop offset="0.653846" stop-color="#BCB2E4"/>
<stop offset="1" stop-opacity="0"/>
</linearGradient>
<linearGradient id="paint3_linear_142_617" x1="104" y1="37.5352" x2="200" y2="37.5352" gradientUnits="userSpaceOnUse">
<stop stop-color="#EECD7F"/>
<stop offset="1" stop-opacity="0"/>
</linearGradient>
</defs>
</svg>
