<svg width="240" height="30" viewBox="0 0 240 30" fill="none" xmlns="http://www.w3.org/2000/svg">
<path d="M12.0001 28.8H5.8651e-05V0.240047H11.8801V5.52005H5.64006V10.968H11.4001V16.248H5.64006V23.52H12.0001V28.8ZM22.4123 8.80805V7.12805C22.4123 5.57605 21.8923 4.80005 20.8523 4.80005C20.3723 4.80005 19.9963 4.98405 19.7243 5.35205C19.4523 5.72005 19.3163 6.24805 19.3163 6.93605C19.3163 7.14405 19.3323 7.36805 19.3643 7.60805C19.4123 7.84805 19.5163 8.10405 19.6763 8.37605C19.8043 8.61605 19.9963 8.90405 20.2523 9.24005C20.5083 9.56005 20.8283 9.90405 21.2123 10.272C21.4043 10.48 21.6203 10.696 21.8603 10.92C22.0843 11.16 22.3403 11.408 22.6283 11.664C23.4923 12.448 24.2843 13.216 25.0043 13.968C25.7403 14.72 26.3403 15.384 26.8043 15.96C27.2683 16.568 27.6363 17.152 27.9083 17.712C28.1803 18.272 28.3803 18.848 28.5083 19.44C28.5723 19.744 28.6123 20.056 28.6283 20.376C28.6603 20.696 28.6763 21.032 28.6763 21.384C28.6763 22.344 28.5723 23.232 28.3643 24.048C28.1563 24.848 27.8363 25.568 27.4043 26.208C27.0043 26.816 26.4763 27.336 25.8203 27.768C25.1803 28.2 24.4763 28.512 23.7083 28.704C22.8603 28.928 21.9483 29.04 20.9723 29.04C19.0043 29.04 17.4043 28.616 16.1723 27.768C14.9563 26.936 14.1483 25.696 13.7483 24.048C13.5403 23.248 13.4363 22.328 13.4363 21.288V18.768H18.7163V21.312C18.7163 22.24 18.9083 22.96 19.2923 23.472C19.6443 23.984 20.1883 24.24 20.9243 24.24C21.1803 24.24 21.4283 24.208 21.6683 24.144C21.9083 24.064 22.1083 23.944 22.2683 23.784C22.4123 23.64 22.5483 23.464 22.6763 23.256C22.8043 23.032 22.9003 22.76 22.9643 22.44C22.9803 22.296 22.9963 22.144 23.0123 21.984C23.0283 21.808 23.0363 21.632 23.0363 21.456C23.0363 21.12 23.0123 20.832 22.9643 20.592C22.9163 20.336 22.8203 20.064 22.6763 19.776C22.5163 19.488 22.2923 19.192 22.0043 18.888C21.7323 18.584 21.4123 18.248 21.0443 17.88C20.8363 17.688 20.6043 17.48 20.3483 17.256C20.1083 17.032 19.8443 16.792 19.5563 16.536C18.6603 15.736 17.8763 15.008 17.2043 14.352C16.5483 13.68 15.9883 13.032 15.5243 12.408C15.0603 11.8 14.6923 11.216 14.4203 10.656C14.1643 10.08 13.9723 9.49605 13.8443 8.90405C13.7803 8.61605 13.7323 8.31205 13.7003 7.99205C13.6843 7.67205 13.6763 7.34405 13.6763 7.00805C13.6763 6.12805 13.7643 5.31205 13.9403 4.56005C14.1323 3.79205 14.4283 3.12005 14.8283 2.54405C15.6123 1.42405 16.7483 0.672048 18.2363 0.288047C18.9723 0.0960474 19.8123 4.76837e-05 20.7563 4.76837e-05C22.5483 4.76837e-05 24.0203 0.360047 25.1723 1.08005C25.5563 1.32005 25.9643 1.69605 26.3963 2.20805C26.8283 2.72005 27.1643 3.41605 27.4043 4.29605C27.5963 5.01605 27.6923 5.81605 27.6923 6.69605V8.80805H22.4123ZM35.1544 14.568C35.1544 15.544 35.2744 16.488 35.5144 17.4C35.7704 18.312 36.1624 19.176 36.6904 19.992C37.1544 20.712 37.7304 21.344 38.4184 21.888C39.1224 22.432 39.8904 22.832 40.7224 23.088C41.5864 23.376 42.4904 23.52 43.4344 23.52C44.9864 23.52 46.3544 23.16 47.5384 22.44C48.7064 21.72 49.6024 20.728 50.2264 19.464C50.3704 19.16 50.4984 18.84 50.6104 18.504C50.7224 18.152 50.8184 17.792 50.8984 17.424H56.6584C56.5304 18.816 56.2104 20.08 55.6984 21.216C55.2024 22.352 54.5624 23.392 53.7784 24.336C52.1304 26.32 50.0344 27.696 47.4904 28.464C46.2104 28.848 44.8744 29.04 43.4824 29.04C42.0904 29.04 40.6824 28.824 39.2584 28.392C37.8504 27.96 36.4824 27.248 35.1544 26.256C33.9864 25.392 32.9784 24.344 32.1304 23.112C31.2824 21.864 30.6424 20.536 30.2104 19.128C29.9864 18.408 29.8104 17.664 29.6824 16.896C29.5704 16.128 29.5144 15.336 29.5144 14.52C29.5144 12.856 29.7464 11.304 30.2104 9.86405C30.6904 8.40805 31.3384 7.08805 32.1544 5.90405C33.0664 4.60805 34.1304 3.52805 35.3464 2.66405C36.5624 1.78405 37.7784 1.13605 38.9944 0.720047C39.6984 0.496048 40.4264 0.320048 41.1784 0.192048C41.9304 0.0640478 42.6984 4.76837e-05 43.4824 4.76837e-05C46.2344 4.76837e-05 48.7304 0.728047 50.9704 2.18405C52.0424 2.88805 52.9864 3.73605 53.8024 4.72805C54.6184 5.70405 55.2664 6.75205 55.7464 7.87205C56.2264 9.02405 56.5304 10.272 56.6584 11.616H50.8984C50.7704 10.896 50.5384 10.216 50.2024 9.57605C49.8824 8.92005 49.5064 8.35205 49.0744 7.87205C48.6264 7.39205 48.1144 6.97605 47.5384 6.62405C46.9624 6.25605 46.3304 5.97605 45.6424 5.78405C44.9224 5.60805 44.1864 5.52005 43.4344 5.52005C42.4104 5.52005 41.4744 5.68005 40.6264 6.00005C39.7784 6.30405 39.0504 6.68805 38.4424 7.15205C37.0504 8.25605 36.0904 9.72805 35.5624 11.568C35.4184 12.032 35.3144 12.52 35.2504 13.032C35.1864 13.528 35.1544 14.04 35.1544 14.568ZM56.6672 28.8L61.1312 0.240047H69.1952L73.6592 28.8H68.0192L67.1792 22.248H63.1472L62.3072 28.8H56.6672ZM63.8192 16.968H66.5072L65.5472 8.01605C65.5152 7.64805 65.4912 7.32005 65.4752 7.03205C65.4592 6.72805 65.4432 6.40805 65.4272 6.07205C65.4112 5.72005 65.4032 5.29605 65.4032 4.80005H64.9232V5.49605C64.9232 5.60805 64.9232 5.72005 64.9232 5.83205C64.9072 5.96005 64.8992 6.08005 64.8992 6.19205C64.8992 6.35205 64.8912 6.52005 64.8752 6.69605C64.8592 6.85605 64.8512 7.01605 64.8512 7.17605C64.8512 7.49605 64.8272 7.77605 64.7792 8.01605L63.8192 16.968ZM75.3282 0.240047H83.7282C85.8562 0.240047 87.5282 1.03205 88.7442 2.61605C89.3202 3.36805 89.7682 4.29605 90.0882 5.40005C90.4082 6.50405 90.5682 7.73605 90.5682 9.09605C90.5682 10.152 90.4722 11.144 90.2802 12.072C90.0882 12.984 89.7842 13.816 89.3682 14.568C88.9682 15.288 88.4962 15.896 87.9522 16.392C87.4242 16.888 86.7922 17.272 86.0562 17.544C85.3522 17.8 84.5762 17.928 83.7282 17.928H80.9682V28.8H75.3282V0.240047ZM80.9682 12.648H82.2882C82.5762 12.648 82.8642 12.608 83.1522 12.528C83.4402 12.432 83.7042 12.264 83.9442 12.024C84.1682 11.8 84.3442 11.56 84.4722 11.304C84.6162 11.048 84.7362 10.712 84.8322 10.296C84.8642 10.12 84.8882 9.93605 84.9042 9.74405C84.9202 9.53605 84.9282 9.32005 84.9282 9.09605C84.9282 8.68005 84.8882 8.28805 84.8082 7.92005C84.7442 7.53605 84.6322 7.19205 84.4722 6.88805C84.3122 6.60005 84.1282 6.36005 83.9202 6.16805C83.7282 5.96005 83.4882 5.79205 83.2002 5.66405C82.9442 5.56805 82.6402 5.52005 82.2882 5.52005H80.9682V12.648ZM104.719 28.8H92.7188V0.240047H104.599V5.52005H98.3588V10.968H104.119V16.248H98.3588V23.52H104.719V28.8ZM116.469 28.8V5.52005H112.029V0.240047H126.549V5.52005H122.109V28.8H116.469ZM128.344 28.8V0.240047H133.984V10.248H138.184V0.240047H143.824V28.8H138.184V15.528H133.984V28.8H128.344ZM158.695 28.8H146.695V0.240047H158.575V5.52005H152.335V10.968H158.095V16.248H152.335V23.52H158.695V28.8ZM172.006 14.568C172.006 15.544 172.126 16.488 172.366 17.4C172.622 18.312 173.014 19.176 173.542 19.992C174.006 20.712 174.582 21.344 175.27 21.888C175.974 22.432 176.742 22.832 177.574 23.088C178.438 23.376 179.342 23.52 180.286 23.52C181.838 23.52 183.206 23.16 184.39 22.44C185.558 21.72 186.454 20.728 187.078 19.464C187.222 19.16 187.35 18.84 187.462 18.504C187.574 18.152 187.67 17.792 187.75 17.424H193.51C193.382 18.816 193.062 20.08 192.55 21.216C192.054 22.352 191.414 23.392 190.63 24.336C188.982 26.32 186.886 27.696 184.342 28.464C183.062 28.848 181.726 29.04 180.334 29.04C178.942 29.04 177.534 28.824 176.11 28.392C174.702 27.96 173.334 27.248 172.006 26.256C170.838 25.392 169.83 24.344 168.982 23.112C168.134 21.864 167.494 20.536 167.062 19.128C166.838 18.408 166.662 17.664 166.534 16.896C166.422 16.128 166.366 15.336 166.366 14.52C166.366 12.856 166.598 11.304 167.062 9.86405C167.542 8.40805 168.19 7.08805 169.006 5.90405C169.918 4.60805 170.982 3.52805 172.198 2.66405C173.414 1.78405 174.63 1.13605 175.846 0.720047C176.55 0.496048 177.278 0.320048 178.03 0.192048C178.782 0.0640478 179.55 4.76837e-05 180.334 4.76837e-05C183.086 4.76837e-05 185.582 0.728047 187.822 2.18405C188.894 2.88805 189.838 3.73605 190.654 4.72805C191.47 5.70405 192.118 6.75205 192.598 7.87205C193.078 9.02405 193.382 10.272 193.51 11.616H187.75C187.622 10.896 187.39 10.216 187.054 9.57605C186.734 8.92005 186.358 8.35205 185.926 7.87205C185.478 7.39205 184.966 6.97605 184.39 6.62405C183.814 6.25605 183.182 5.97605 182.494 5.78405C181.774 5.60805 181.038 5.52005 180.286 5.52005C179.262 5.52005 178.326 5.68005 177.478 6.00005C176.63 6.30405 175.902 6.68805 175.294 7.15205C173.902 8.25605 172.942 9.72805 172.414 11.568C172.27 12.032 172.166 12.52 172.102 13.032C172.038 13.528 172.006 14.04 172.006 14.568ZM193.519 28.8L197.983 0.240047H206.047L210.511 28.8H204.871L204.031 22.248H199.999L199.159 28.8H193.519ZM200.671 16.968H203.359L202.399 8.01605C202.367 7.64805 202.343 7.32005 202.327 7.03205C202.311 6.72805 202.295 6.40805 202.279 6.07205C202.263 5.72005 202.255 5.29605 202.255 4.80005H201.775V5.49605C201.775 5.60805 201.775 5.72005 201.775 5.83205C201.759 5.96005 201.751 6.08005 201.751 6.19205C201.751 6.35205 201.743 6.52005 201.727 6.69605C201.711 6.85605 201.703 7.01605 201.703 7.17605C201.703 7.49605 201.679 7.77605 201.631 8.01605L200.671 16.968ZM214.698 0.240047L216.954 18.648C216.986 18.824 217.018 19.064 217.05 19.368C217.082 19.672 217.106 19.992 217.122 20.328C217.154 20.648 217.178 20.928 217.194 21.168C217.226 21.616 217.25 22.072 217.266 22.536C217.282 23 217.298 23.456 217.314 23.904C217.314 24.128 217.314 24.344 217.314 24.552V25.2H217.794C217.794 24.832 217.794 24.52 217.794 24.264C217.81 24.008 217.818 23.752 217.818 23.496C217.834 23.24 217.85 22.92 217.866 22.536C217.866 22.12 217.882 21.672 217.914 21.192C217.946 20.712 217.986 20.264 218.034 19.848C218.05 19.64 218.066 19.432 218.082 19.224C218.098 19.032 218.122 18.84 218.154 18.648L220.41 0.240047H226.05L221.586 28.8H213.522L209.058 0.240047H214.698ZM239.719 28.8H227.719V0.240047H239.599V5.52005H233.359V10.968H239.119V16.248H233.359V23.52H239.719V28.8Z" fill="url(#paint0_linear_40_66)"/>
<defs>
<linearGradient id="paint0_linear_40_66" x1="272.56" y1="-7.19995" x2="272.56" y2="226.8" gradientUnits="userSpaceOnUse">
<stop stop-color="white"/>
<stop offset="0.192308" stop-color="#8D7BD1"/>
</linearGradient>
</defs>
</svg>
